HIERARCHY
ROOT Hips
{
	OFFSET 0.000000 0.000000 0.000000 
	CHANNELS 6 Xposition Yposition Zposition Zrotation Yrotation Xrotation
	JOINT LeftUpLeg
	{
		OFFSET 1.363060 -1.794630 0.839290 
		CHANNELS 3 Zrotation Yrotation Xrotation
		JOINT LeftLeg
		{
			OFFSET 2.448110 -6.726130 0.000000 
			CHANNELS 3 Zrotation Yrotation Xrotation
			JOINT LeftFoot
			{
				OFFSET 2.562200 -7.039590 0.000000 
				CHANNELS 3 Zrotation Yrotation Xrotation
				JOINT LeftToeBase
				{
					OFFSET 0.157640 -0.433110 2.322550 
					CHANNELS 3 Zrotation Yrotation Xrotation
					End Site
					{
						OFFSET 0.000000 0.000000 0.000000 
					}
				}
			}
		}
	}
	JOINT RightUpLeg
	{
		OFFSET -1.305520 -1.794630 0.839290 
		CHANNELS 3 Zrotation Yrotation Xrotation
		JOINT RightLeg
		{
			OFFSET -2.542530 -6.985550 0.000000 
			CHANNELS 3 Zrotation Yrotation Xrotation
			JOINT RightFoot
			{
				OFFSET -2.568260 -7.056230 0.000000 
				CHANNELS 3 Zrotation Yrotation Xrotation
				JOINT RightToeBase
				{
					OFFSET -0.164730 -0.452590 2.363150 
					CHANNELS 3 Zrotation Yrotation Xrotation
					End Site
					{
						OFFSET 0.000000 0.000000 0.000000 
					}
				}
			}
		}
	}
	JOINT Spine
	{
		OFFSET 0.028270 2.035590 -0.193380 
		CHANNELS 3 Zrotation Yrotation Xrotation
		JOINT Spine1
		{
			OFFSET 0.056720 2.048850 -0.042750 
			CHANNELS 3 Zrotation Yrotation Xrotation
			JOINT Neck1
			{
				OFFSET -0.054170 1.746240 0.172020 
				CHANNELS 3 Zrotation Yrotation Xrotation
				JOINT Head
				{
					OFFSET 0.104070 1.761360 -0.123970 
					CHANNELS 3 Zrotation Yrotation Xrotation
					End Site
					{
						OFFSET 0.000000 0.000000 0.000000 
					}
				}
			}
			JOINT LeftArm
			{
				OFFSET 3.362410 1.200890 -0.311210 
				CHANNELS 3 Zrotation Yrotation Xrotation
				JOINT LeftForeArm
				{
					OFFSET 4.983000 -0.000000 -0.000000 
					CHANNELS 3 Zrotation Yrotation Xrotation
					JOINT LeftHand
					{
						OFFSET 3.483560 -0.000000 -0.000000 
						CHANNELS 3 Zrotation Yrotation Xrotation
						JOINT LeftHandIndex1
						{
							OFFSET 0.715260 -0.000000 -0.000000 
							CHANNELS 3 Zrotation Yrotation Xrotation
							End Site
							{
								OFFSET 0.000000 0.000000 0.000000 
							}
						}
					}
				}
			}
			JOINT RightArm
			{
				OFFSET -3.136600 1.374050 -0.404650 
				CHANNELS 3 Zrotation Yrotation Xrotation
				JOINT RightForeArm
				{
					OFFSET -5.241900 -0.000000 -0.000000 
					CHANNELS 3 Zrotation Yrotation Xrotation
					JOINT RightHand
					{
						OFFSET -3.444170 -0.000000 -0.000000 
						CHANNELS 3 Zrotation Yrotation Xrotation
						JOINT RightHandIndex1
						{
							OFFSET -0.622530 -0.000000 -0.000000 
							CHANNELS 3 Zrotation Yrotation Xrotation
							End Site
							{
								OFFSET 0.000000 0.000000 0.000000 
							}
						}
					}
				}
			}
		}
	}
}
MOTION
Frames: 18
Frame Time: 0.041667
-29.584133 17.504671 0.373481 -153.864140 77.734880 -141.989550 -13.086015 -3.132637 -17.205905 1.485326 11.242383 29.149326 -1.301536 10.721931 -18.221395 0.436400 -4.239200 -11.750700 23.389440 -12.751526 -12.169219 -0.972461 -8.456155 19.476008 0.482770 -18.948966 -23.060166 -0.000600 -0.159200 0.437400 0.242113 4.150728 -1.337912 -1.660260 2.370783 9.901463 -1.342666 23.569341 11.545820 -2.911200 11.786200 11.553900 -71.752685 -11.700365 45.784330 12.793302 -27.354677 -3.585958 -0.121481 -0.287846 -17.615319 -7.125000 0.000000 0.000000 70.151880 -1.468620 9.406580 -16.666790 29.511532 -6.067757 1.144788 0.583015 -7.874095 7.125000 0.000000 0.000000 
-29.556983 17.508565 0.368956 -153.702002 77.913825 -141.411590 -13.144000 -3.402818 -17.420712 1.482408 11.251587 29.152888 -1.392458 11.036382 -18.051848 0.328500 -3.683700 -10.188400 23.237153 -10.248250 -10.524918 -0.723494 -7.524970 16.723625 0.524160 -20.011363 -24.821595 -0.035400 -1.215000 3.340400 0.234779 4.143860 -1.363147 -1.587494 2.354319 10.131566 -1.183863 23.578374 11.676624 -2.778800 11.765900 11.636300 -71.565676 -11.747301 45.806066 12.597850 -27.130429 -3.510108 -0.165915 -0.203523 -16.538296 -7.125000 0.000000 0.000000 70.126327 -1.459674 9.655671 -16.779743 29.637606 -6.104467 1.135164 0.590021 -7.935636 7.125000 0.000000 0.000000 
-29.528464 17.508670 0.371481 -153.371441 78.074501 -140.632723 -13.133988 -3.502065 -17.782833 1.500464 11.286207 29.253218 -1.450625 11.214836 -17.878641 0.261400 -3.289500 -9.085800 23.200998 -7.859175 -9.370885 -0.563295 -6.806706 14.606375 0.595169 -21.240070 -26.559648 -0.079100 -1.814100 4.992300 0.233708 4.110902 -1.364995 -1.519950 2.325965 10.458250 -1.068619 23.700333 11.745375 -2.634600 11.783500 11.700600 -71.361399 -11.947640 45.768533 12.379064 -26.871615 -3.429029 -0.199973 -0.143417 -15.619016 -7.125000 0.000000 0.000000 70.035187 -1.343901 10.088011 -16.889892 29.772582 -6.148423 1.130685 0.601186 -8.123295 7.125000 0.000000 0.000000 
-29.503733 17.503408 0.383163 -153.927521 78.287695 -140.745307 -13.260896 -3.581796 -18.146121 1.507692 11.310996 29.303756 -1.492620 11.308612 -17.626808 0.210800 -2.956200 -8.157000 23.100702 -5.779671 -8.335896 -0.428578 -6.075241 12.499794 0.789619 -22.813346 -27.618104 -0.097500 -2.013800 5.543800 0.173209 4.161913 -1.390337 -1.580363 2.338664 10.644707 -1.018480 23.734023 11.768171 -2.591400 11.792000 11.722300 -71.026194 -11.964267 46.039306 12.295423 -26.772460 -3.390916 -0.270708 -0.126873 -14.081165 -7.125000 0.000000 0.000000 70.102135 -1.417496 10.539430 -17.008709 29.885835 -6.116344 1.086087 0.603675 -8.279849 7.125000 0.000000 0.000000 
-29.485422 17.495410 0.399053 -155.116289 78.548339 -141.490243 -13.480405 -3.776395 -18.481924 1.502807 11.335442 29.313563 -1.539941 11.411598 -17.309619 0.141300 -2.422700 -6.675400 22.911246 -3.663164 -7.621094 -0.357998 -5.576038 11.065899 0.978932 -24.214842 -28.533812 -0.132400 -2.345500 6.461400 0.080935 4.308119 -1.445504 -1.686189 2.401949 10.646175 -1.110348 23.614263 11.699935 -2.694700 11.757300 11.670000 -70.722880 -11.782412 46.494439 12.178339 -26.643247 -3.340924 -0.367764 -0.104332 -12.363486 -7.125000 0.000000 0.000000 70.214534 -1.628651 10.847887 -17.111333 29.912103 -5.946814 0.916870 0.620838 -8.039271 7.125000 0.000000 0.000000 
-29.463849 17.489938 0.418732 -156.850839 78.909756 -142.870119 -13.835795 -3.917847 -18.703414 1.493994 11.358905 29.292791 -1.584453 11.387754 -16.542471 0.020100 -0.915400 -2.516100 22.649044 -1.904894 -7.045711 -0.317931 -5.247107 10.134611 1.200568 -25.557761 -29.116988 -0.205100 -2.915900 8.044700 -0.007183 4.425124 -1.493735 -1.738289 2.449925 10.619037 -1.225883 23.550665 11.585959 -2.802900 11.749700 11.564100 -70.493558 -11.374009 47.193475 11.815400 -26.243784 -3.211674 -0.490515 -0.015078 -10.550756 -7.125000 0.000000 0.000000 70.272711 -1.882127 10.828492 -17.008188 29.956776 -6.144047 1.083102 0.623142 -7.887952 7.125000 0.000000 0.000000 
-29.441223 17.486044 0.446199 -159.408692 79.341143 -145.165711 -14.311448 -3.969189 -18.848979 1.467490 11.375873 29.251006 -1.514852 11.253865 -17.034750 0.007500 -0.561000 -1.541500 22.338820 -0.852938 -6.576504 -0.292528 -5.037363 9.578261 1.422045 -26.806106 -29.655744 -0.322100 -3.648200 10.089000 -0.097232 4.456169 -1.522948 -1.780943 2.456062 10.639244 -1.217354 23.638123 11.550239 -2.789000 11.796100 11.495300 -70.403847 -11.275510 46.264025 11.445948 -25.832239 -3.100598 -0.513137 -0.009945 -10.739253 -7.125000 0.000000 0.000000 70.278271 -2.068311 11.142287 -16.886386 29.910431 -6.170326 1.126773 0.623657 -7.683264 7.125000 0.000000 0.000000 
-29.418703 17.482887 0.477454 -162.152190 79.513687 -147.733993 -14.657573 -4.183985 -18.869440 1.441804 11.391986 29.197746 -1.508457 11.295078 -17.229155 0.007100 -0.542900 -1.491900 22.102573 -0.081967 -6.028498 -0.280443 -4.927565 9.318500 1.474706 -27.696344 -31.238130 -0.433800 -4.226400 11.714600 -0.162109 4.389524 -1.524811 -1.855047 2.419655 10.762744 -1.179030 23.762758 11.595390 -2.712200 11.834700 11.522700 -70.409502 -11.337490 45.055202 10.920015 -25.218813 -2.937359 -0.538552 -0.001807 -10.144107 -7.125000 0.000000 0.000000 70.200126 -1.905983 11.425246 -16.545720 29.566669 -5.997238 1.131107 0.613484 -7.434766 7.125000 0.000000 0.000000 
-29.398077 17.477204 0.510708 -164.125395 79.580058 -149.657681 -14.845080 -4.497082 -18.726752 1.423358 11.406990 29.168834 -1.508256 11.380409 -17.494555 0.004500 -0.435200 -1.195700 21.905159 0.649672 -5.425693 -0.277482 -4.844395 9.135452 1.398286 -28.085307 -32.819760 -0.488500 -4.481700 12.435900 -0.218821 4.350466 -1.477034 -2.004187 2.398285 11.043302 -1.206675 23.813141 11.629755 -2.692800 11.842200 11.566700 -70.513650 -11.545014 43.587825 10.238545 -24.401741 -2.725582 -0.557240 0.014444 -9.170324 -7.125000 0.000000 0.000000 70.147896 -1.566233 11.459472 -16.092546 29.097180 -5.788798 1.139779 0.599422 -7.138167 7.125000 0.000000 0.000000 
-29.385554 17.475521 0.546804 -164.803300 79.738451 -150.229089 -14.875783 -4.642522 -18.711634 1.410913 11.401253 29.130069 -1.529901 11.538489 -17.730965 0.003700 -0.391600 -1.076000 21.774289 1.727928 -5.117149 -0.280828 -4.831746 9.090973 1.395140 -28.533247 -33.772268 -0.523100 -4.635300 12.871300 -0.259486 4.387762 -1.466740 -2.160966 2.419499 11.136005 -1.337446 23.832180 11.608627 -2.763600 11.852500 11.567200 -70.815696 -11.664325 41.872131 9.515419 -23.525545 -2.511352 -0.580858 0.032916 -8.157612 -7.125000 0.000000 0.000000 70.082116 -1.493448 11.501470 -15.732402 28.736329 -5.638070 1.145184 0.597208 -6.932187 7.125000 0.000000 0.000000 
-29.373452 17.483518 0.586478 -163.973540 79.863913 -149.063827 -14.661714 -4.721290 -18.920986 1.393798 11.355393 29.017628 -1.612829 11.894464 -17.832090 0.007400 -0.555200 -1.525600 21.854966 3.161615 -5.337756 -0.296331 -4.990909 9.410629 1.374270 -28.959022 -34.773782 -0.556400 -4.778000 13.276400 -0.281136 4.476960 -1.500261 -2.316808 2.467006 11.190634 -1.362325 23.859776 11.618123 -2.775000 11.869200 11.558200 -71.264414 -11.723186 39.666729 8.660040 -22.472304 -2.271367 -0.599034 0.069686 -6.764887 -7.125000 0.000000 0.000000 70.012591 -1.512725 11.454222 -15.360895 28.365913 -5.493182 1.148506 0.600618 -6.715943 7.125000 0.000000 0.000000 
-29.356614 17.496252 0.629414 -162.737248 79.970040 -147.514784 -14.384514 -4.912950 -18.996043 1.368586 11.293879 28.865211 -1.703230 12.334081 -18.115793 0.009600 -0.632100 -1.737000 21.995126 4.680762 -5.680668 -0.311274 -5.230127 9.910816 1.443609 -29.630186 -35.554940 -0.483800 -4.460400 12.375500 -0.300805 4.640152 -1.563032 -2.428869 2.547689 11.154699 -1.203084 23.795637 11.781991 -2.711600 11.855500 11.616500 -71.816804 -11.645941 37.057734 7.689835 -21.249132 -2.009964 -0.598230 0.117247 -5.005111 -7.125000 0.000000 0.000000 70.000383 -1.681332 11.232216 -14.945284 27.931160 -5.319759 1.147691 0.596423 -6.428283 7.125000 0.000000 0.000000 
-29.340934 17.505513 0.678243 -162.580414 80.112397 -147.245930 -14.273016 -5.001819 -18.891984 1.344486 11.243865 28.727706 -1.757610 12.605485 -18.308847 0.011900 -0.704000 -1.934800 21.978194 6.010376 -5.772308 -0.322609 -5.430981 10.362000 1.586155 -30.492423 -36.197375 -0.412000 -4.120100 11.414900 -0.313141 4.776441 -1.617244 -2.419488 2.613151 10.974575 -1.179428 23.706357 11.852820 -2.744500 11.836300 11.649700 -72.515713 -11.432906 34.220194 6.849057 -20.171513 -1.801837 -0.592194 0.152366 -3.125241 -7.125000 0.000000 0.000000 69.967079 -1.918124 10.929025 -14.546530 27.485593 -5.135941 1.140692 0.586918 -6.083415 7.125000 0.000000 0.000000 
-29.329358 17.500988 0.735702 -163.319342 80.280060 -147.796450 -14.226099 -4.894830 -19.048052 1.328914 11.214828 28.627589 -1.800360 12.716388 -18.121038 0.017800 -0.861800 -2.368600 21.959539 5.711598 -6.310733 -0.351056 -5.571579 10.740240 1.339084 -29.561254 -36.142728 -0.514700 -4.598200 12.766100 -0.320348 4.842024 -1.640719 -2.313449 2.643782 10.944463 -1.165258 23.711657 11.867685 -2.751600 11.844300 11.685800 -73.206850 -11.166165 31.471169 6.258724 -19.410188 -1.673937 -0.589351 0.177793 -1.539066 -7.125000 0.000000 0.000000 69.871331 -1.963259 10.611971 -14.199077 27.089291 -4.992493 1.142844 0.578874 -5.730835 7.125000 0.000000 0.000000 
-29.318519 17.498251 0.794318 -163.505408 80.347857 -147.574524 -14.011855 -4.930902 -19.430457 1.319205 11.191669 28.556412 -1.855232 12.890308 -17.992875 0.019700 -0.906800 -2.492300 22.031483 5.968163 -6.897492 -0.375595 -5.688343 10.992785 1.013654 -28.652020 -36.781443 -0.708800 -5.380900 14.998200 -0.298976 4.924186 -1.693970 -2.083717 2.677698 10.935926 -1.067051 23.694027 11.976773 -2.700300 11.832500 11.796400 -73.947348 -10.711248 29.158982 5.827008 -18.860335 -1.587477 -0.583286 0.198486 -0.375712 -7.125000 0.000000 0.000000 69.679510 -2.124079 10.325627 -13.939355 26.794256 -4.903516 1.146440 0.583916 -5.601371 7.125000 0.000000 0.000000 
-29.312310 17.514984 0.852618 -161.762092 80.437312 -144.922114 -13.490650 -5.291531 -20.220336 1.313745 11.173853 28.522053 -1.946215 13.323259 -18.281439 0.020800 -0.930500 -2.557700 22.268051 6.567426 -8.139202 -0.376379 -5.779174 11.027272 0.979467 -28.484887 -36.719142 -0.792500 -5.682400 15.865700 -0.302036 5.131751 -1.804925 -1.991729 2.776577 10.925983 -1.078091 23.616841 11.904774 -2.737600 11.801600 11.783600 -74.626712 -10.256634 26.786671 5.454222 -18.365659 -1.515394 -0.572134 0.208434 0.534342 -7.125000 0.000000 0.000000 69.650627 -2.406333 10.008492 -13.730418 26.565797 -4.831418 1.143823 0.587981 -5.588137 7.125000 0.000000 0.000000 
-29.294209 17.516878 0.913129 -162.365057 80.253857 -145.542803 -13.264983 -5.634997 -20.020871 1.307407 11.163966 28.496520 -1.969198 13.482211 -18.507247 0.024700 -1.014900 -2.789700 22.492244 6.825533 -7.979133 -0.372836 -5.807717 11.075601 0.906912 -28.525067 -37.338436 -0.840400 -5.847500 16.342700 -0.272277 5.068899 -1.810574 -1.867931 2.748442 10.866289 -1.153709 23.577746 11.739183 -2.791500 11.781600 11.686500 -75.306290 -9.702721 24.442479 5.250985 -18.088625 -1.488556 -0.549384 0.214198 0.840702 -7.125000 0.000000 0.000000 69.560260 -2.590135 9.684902 -13.432194 26.230604 -4.721054 1.138371 0.596541 -5.536003 7.125000 0.000000 0.000000 
-29.276109 17.514668 0.967641 -162.786577 80.055475 -145.909739 -13.031107 -5.976072 -19.865133 1.291091 11.136784 28.409168 -2.008312 13.662723 -18.593833 0.017600 -0.856700 -2.354600 22.682868 7.286509 -8.022849 -0.377065 -5.923728 11.330561 0.845396 -28.674899 -38.039284 -0.874700 -5.962800 16.676600 -0.220590 4.926154 -1.795163 -1.723083 2.678499 10.986981 -1.103086 23.611916 11.762615 -2.714200 11.768000 11.731900 -75.938019 -8.945829 23.120094 5.399059 -18.324671 -1.548979 -0.535220 0.204692 0.334727 -7.125000 0.000000 0.000000 69.323534 -2.495480 9.359441 -13.042019 25.783530 -4.583220 1.139523 0.606649 -5.314956 7.125000 0.000000 0.000000 
